<?xml version="1.0" encoding="UTF-8"?>
<svg version="1.1" xmlns="http://www.w3.org/2000/svg" width="554" height="450">
<path d="M0 0 C6.15253457 0.22372853 6.15253457 0.22372853 8.68847656 2.54663086 C10.54118046 6.01234595 10.56417997 9.2877907 10.546875 13.12890625 C10.5436322 13.9224501 10.5403894 14.71599396 10.53704834 15.53358459 C10.2650891 24.60913295 7.42922838 32.52433336 4.25 40.9375 C3.70311111 42.44762215 3.15883254 43.95869221 2.6171875 45.47070312 C1.33415218 49.03428725 0.02212152 52.58610259 -1.30407715 56.13381958 C-4.03432026 63.45521478 -6.66603477 70.81334991 -9.25 78.1875 C-9.54592041 79.03135254 -9.84184082 79.87520508 -10.14672852 80.74462891 C-12.83235087 88.44327279 -15.38950313 96.18256407 -17.94384766 103.92553711 C-20.21030286 110.75057101 -22.62451603 117.5076129 -25.125 124.25 C-28.87063921 134.37371912 -32.03917574 144.62262492 -35 155 C-35.20012695 155.69883301 -35.40025391 156.39766602 -35.60644531 157.11767578 C-36.07203962 158.74480966 -36.53619693 160.37235464 -37 162 C-20.97677474 157.80542293 -20.97677474 157.80542293 -5.2421875 152.6640625 C-3 152 -3 152 1 152 C1.3403125 150.1128125 1.3403125 150.1128125 1.6875 148.1875 C2.75419311 143.33404634 4.65852299 139.14173933 6.78125 134.66796875 C8.13893919 131.69584787 9.14984692 128.71884825 10.13671875 125.609375 C13.47849524 115.50843973 17.5257701 105.61922939 21.39355469 95.7109375 C25.21357204 85.91084898 28.8808945 76.05558255 32.50512695 66.18164062 C35.40140353 58.2934936 38.33286183 50.41957875 41.3125 42.5625 C41.65007324 41.66829346 41.98764648 40.77408691 42.33544922 39.8527832 C42.65400879 39.01577881 42.97256836 38.17877441 43.30078125 37.31640625 C43.58091064 36.57849854 43.86104004 35.84059082 44.1496582 35.08032227 C45.00231305 32.99434123 45.96606957 31.00149275 47 29 C46.39003174 29.29245605 45.78006348 29.58491211 45.15161133 29.88623047 C42.37269449 31.21747025 39.59261141 32.54625683 36.8125 33.875 C35.85279297 34.33519531 34.89308594 34.79539063 33.90429688 35.26953125 C32.97294922 35.71425781 32.04160156 36.15898438 31.08203125 36.6171875 C30.22843018 37.02565918 29.3748291 37.43413086 28.49536133 37.85498047 C22.48069283 40.61486651 19.48805942 41.09967109 13 40 C12.1875 37.9375 12.1875 37.9375 12 35 C17.07360909 24.59198883 26.93163283 21.07452558 37 17 C38.07636719 16.53078125 39.15273438 16.0615625 40.26171875 15.578125 C45.45694929 13.31643693 50.3627981 11.51844696 55.9296875 10.4609375 C58.03176627 9.99292751 59.88384372 9.31419751 61.875 8.5 C78.71379855 2.0008146 98.01662065 2.53903528 114.640625 9.03125 C124.01002663 13.61767038 131.25268947 21.74428245 134.9140625 31.4140625 C135.14867187 32.14367187 135.38328125 32.87328125 135.625 33.625 C135.86476563 34.35976562 136.10453125 35.09453125 136.3515625 35.8515625 C141.34758308 52.40464272 133.52689372 72.22869052 125.73144531 86.8293457 C121.68543633 93.99297582 116.50261149 99.93412907 111 106 C109.66084226 107.66199041 108.32634969 109.32777033 107 111 C102.6467177 115.60204129 97.96978303 120.06518161 93 124 C92.34 124 91.68 124 91 124 C90.67 124.99 90.34 125.98 90 127 C79.96875 136 79.96875 136 75 136 C75 136.66 75 137.32 75 138 C73.0234375 139.40234375 73.0234375 139.40234375 70.375 140.9375 C69.45460938 141.47117188 68.53421875 142.00484375 67.5859375 142.5546875 C64.76251864 144.13273127 61.91708889 145.60222824 59 147 C58.28585937 147.36738281 57.57171875 147.73476562 56.8359375 148.11328125 C29.750387 162 29.750387 162 18 162 C14.2867607 169.34468919 11.22419737 176.88660704 8.34375 184.59375 C7.30359224 187.23042897 6.20936053 189.80031473 5.046875 192.3828125 C-1.85379916 207.80594848 -5.7740798 223.74348855 -9.24707031 240.21630859 C-9.48876953 241.33753616 -9.48876953 241.33753616 -9.73535156 242.48141479 C-10.03893219 243.89286271 -10.33404416 245.30616877 -10.61914062 246.72146606 C-11.42584483 250.45312242 -12.25665149 253.27513088 -15 256 C-18.46215285 256.71856003 -20.67681088 256.77426787 -23.7890625 254.953125 C-27.77296244 251.29020278 -28.50185223 247.61016638 -28.75 242.3125 C-28.52902135 232.41784131 -25.17477781 223.26916437 -22 214 C-21.38805198 212.18306166 -20.77611919 210.36611817 -20.1645813 208.54904175 C-12.65148136 186.2740165 -12.65148136 186.2740165 -8.80126953 177.18798828 C-7.93167947 174.81344041 -7.43671892 172.48749412 -7 170 C-13.68115264 171.14620226 -20.04032761 172.83590983 -26.4765625 174.9609375 C-29.05173221 175.72035562 -31.39909946 176.28144066 -34.0234375 176.7265625 C-37.89708184 177.42785779 -41.41586077 178.30674124 -45 180 C-46.888458 182.73778961 -47.43327109 185.04309398 -48.140625 188.2890625 C-49.17791744 192.76827985 -50.85436566 196.73461975 -52.6875 200.9375 C-53.38579456 202.57015092 -54.08370181 204.20296755 -54.78125 205.8359375 C-55.1421875 206.67479492 -55.503125 207.51365234 -55.875 208.37792969 C-57.04052474 211.0944522 -58.19324874 213.81614602 -59.34375 216.5390625 C-60.12476292 218.38030891 -60.90600749 220.22145709 -61.6875 222.0625 C-62.04352295 222.90611084 -62.3995459 223.74972168 -62.76635742 224.61889648 C-64.94669509 229.72782065 -67.32050067 234.69562271 -69.83276367 239.64916992 C-71.45754455 242.92150104 -72.89021471 246.26107779 -74.3125 249.625 C-77.60279837 257.27694215 -81.25541898 264.71648185 -85.05151367 272.12841797 C-85.69765091 273.4033956 -86.33282844 274.68397305 -86.95825195 275.96923828 C-89.3100992 280.79020265 -91.94194433 285.34540752 -94.8125 289.875 C-95.25480957 290.5747998 -95.69711914 291.27459961 -96.15283203 291.99560547 C-102.59889037 302.13918474 -109.62043834 311.33282747 -117.55273438 320.34863281 C-118.85447185 321.83394865 -120.13928032 323.33406051 -121.421875 324.8359375 C-131.75599612 336.74582886 -144.77877871 347.64404652 -161 349 C-161.70898438 349.06960938 -162.41796875 349.13921875 -163.1484375 349.2109375 C-170.45460387 349.58635316 -176.65489102 347.39898789 -182.3125 342.875 C-188.55427802 337.00623661 -190.80259068 329.53123248 -191.16796875 321.14453125 C-191.25325076 313.18487703 -191.1186221 305.71944754 -189 298 C-188.57460937 296.19595703 -188.57460937 296.19595703 -188.140625 294.35546875 C-184.0651287 278.09053352 -175.71997877 260.9768164 -165 248 C-164.34 248 -163.68 248 -163 248 C-162.814375 247.34 -162.62875 246.68 -162.4375 246 C-160.35980617 241.6639433 -157.21851808 238.53315936 -154 235 C-152.87429157 233.66726473 -151.74928225 232.33393861 -150.625 231 C-147.4188908 227.32452797 -143.91046202 224.12900625 -140.2109375 220.95703125 C-138.61164574 219.54140374 -137.06940553 218.06044314 -135.56640625 216.54296875 C-133.01164431 214.01153797 -130.36209165 211.75555753 -127.5625 209.5 C-124.49402023 207.02621887 -121.4590845 204.54060441 -118.5 201.9375 C-116 200 -116 200 -113 200 C-113 199.34 -113 198.68 -113 198 C-111.06990676 196.6754847 -109.07766603 195.4410947 -107.0625 194.25 C-105.85586536 193.53016147 -104.65013786 192.80880023 -103.4453125 192.0859375 C-102.85266602 191.73112305 -102.26001953 191.37630859 -101.64941406 191.01074219 C-99.52404325 189.70833911 -97.48173069 188.30068118 -95.4375 186.875 C-90.23958506 183.35876342 -84.6387888 180.72670198 -79 178 C-77.60340202 177.27229895 -76.20746427 176.54332789 -74.8125 175.8125 C-72.00998543 174.37906353 -69.27783698 173.476733 -66.25 172.625 C-63.09695074 171.59023641 -62.02282387 171.0234245 -59.625 168.5625 C-57.79011572 164.53986908 -56.88505138 160.6516561 -55.9140625 156.3515625 C-54.576097 151.44568898 -52.47863584 146.9475206 -50.41015625 142.3125 C-48.89240399 138.74725369 -47.80670085 135.20629483 -46.7734375 131.48046875 C-45.88237666 128.62277363 -44.74804569 125.93581046 -43.5625 123.1875 C-41.34384771 118.01285887 -39.63114086 112.81073426 -38.08984375 107.3984375 C-37.19195744 104.59857697 -36.19279572 101.93830728 -35.0859375 99.21875 C-33.06766496 94.25062286 -31.34495038 89.22300447 -29.6875 84.125 C-27.32847553 76.94979426 -24.89753696 69.80682871 -22.375 62.6875 C-20.05378951 56.12286649 -17.87519823 49.5356005 -15.84765625 42.87475586 C-14.33361009 37.94476755 -12.62971977 33.09893675 -10.875 28.25 C-8.75154938 22.38155465 -7.0672112 16.54887921 -5.6484375 10.46484375 C-4.55518424 6.30916418 -3.03365476 3.03365476 0 0 Z M68.48046875 23.3046875 C62.56909257 30.0739151 60.17291467 41.27212213 57.26953125 49.5859375 C55.63971198 53.96889763 53.68013807 58.1473445 51.6796875 62.37109375 C49.63256403 66.79383259 47.71073052 71.26172581 45.8125 75.75 C45.47951904 76.53012451 45.14653809 77.31024902 44.8034668 78.11401367 C42.94035024 82.54026168 41.29290403 86.98175376 39.81079102 91.54882812 C38.16428229 96.5265299 36.3457485 101.44501749 34.5625 106.375 C34.18029297 107.43460937 33.79808594 108.49421875 33.40429688 109.5859375 C31.57412476 114.65697467 29.73578133 119.7248845 27.88671875 124.7890625 C26.29069812 129.1770288 24.74313064 133.57590921 23.25 138 C23.02957031 138.64066406 22.80914062 139.28132813 22.58203125 139.94140625 C21.63286015 142.76533765 21 144.99718382 21 148 C28.78569929 146.99539364 36.11603412 142.58816754 43 139 C43.70898438 138.63132812 44.41796875 138.26265625 45.1484375 137.8828125 C50.24598624 135.14623371 54.95128164 132.03518548 59.640625 128.6484375 C62 127 62 127 64.48046875 125.5390625 C82.12426211 114.76130346 102.52376365 95.43447908 112 77 C112.61681641 75.87658203 112.61681641 75.87658203 113.24609375 74.73046875 C120.17291828 61.7183965 125.30877943 47.58937595 121 33 C120.36758594 31.65008345 119.71067711 30.31040462 119 29 C118.34 29 117.68 29 117 29 C116.60167969 28.07574219 116.60167969 28.07574219 116.1953125 27.1328125 C114.13577114 23.45794458 110.8444739 22.23066728 107 21 C95.42281366 18.72795458 78.83089927 16.40440049 68.48046875 23.3046875 Z M-68 188 C-70.72114428 189.2535947 -73.31307107 190.56598432 -75.9375 192 C-76.70441162 192.41282227 -77.47132324 192.82564453 -78.26147461 193.25097656 C-83.51593024 196.10971831 -88.6208884 199.14092569 -93.6171875 202.43359375 C-95.93880328 203.95977068 -98.30288422 205.38754667 -100.6875 206.8125 C-101.780625 207.534375 -102.87375 208.25625 -104 209 C-104 209.66 -104 210.32 -104 211 C-104.54140625 211.24363281 -105.0828125 211.48726562 -105.640625 211.73828125 C-115.76424202 217.15206982 -125.11545911 225.73084736 -133 234 C-133.62132812 234.6496875 -134.24265625 235.299375 -134.8828125 235.96875 C-141.38240956 242.95756404 -147.04914814 250.48626615 -152.67089844 258.1875 C-153.77886203 259.69843346 -154.90656866 261.19486443 -156.0390625 262.6875 C-168.8095496 279.94806704 -177.21283818 301.48335226 -176 323 C-175.22038145 327.74378068 -173.75595027 331.65528034 -170.5 335.25 C-166.58668835 337.20665583 -165.8244981 337.1263597 -161.75 336.125 C-159.81703988 335.46241988 -157.899361 334.75350847 -156 334 C-155.17113281 333.68804687 -154.34226562 333.37609375 -153.48828125 333.0546875 C-145.80237707 329.71299003 -139.68170028 324.06243277 -134 318 C-134 317.34 -134 316.68 -134 316 C-133.39800781 315.7421875 -132.79601562 315.484375 -132.17578125 315.21875 C-129.7862338 313.88026023 -128.76380879 312.7168262 -127.1875 310.5 C-126.67316406 309.78199219 -126.15882812 309.06398438 -125.62890625 308.32421875 C-125.09136719 307.55722656 -124.55382812 306.79023438 -124 306 C-123.17822266 304.86498047 -123.17822266 304.86498047 -122.33984375 303.70703125 C-118.24833157 297.99382632 -114.52864965 292.08811306 -110.89453125 286.078125 C-109.61895616 284.00564423 -108.29714644 281.96099908 -106.93359375 279.9453125 C-105.14901919 277.22699084 -103.67238916 274.54508128 -102.25 271.625 C-101.74210937 270.58988281 -101.23421875 269.55476563 -100.7109375 268.48828125 C-100.14632812 267.33714844 -99.58171875 266.18601562 -99 265 C-98.3271684 263.65932813 -97.65261816 262.31951773 -96.9765625 260.98046875 C-93.4805919 254.05367492 -90.06138619 247.13176859 -87 240 C-86.21310669 238.2147485 -85.42616595 236.42951783 -84.63867188 234.64453125 C-78.01119058 219.58339794 -71.63119814 204.4644646 -66 189 C-66.99 188.505 -66.99 188.505 -68 188 Z " fill="#EAEAEB" transform="translate(235,45)"/>
<path d="M0 0 C0.69996094 0.47308594 1.39992188 0.94617187 2.12109375 1.43359375 C8.58602755 6.38015777 11.03495657 12.30021224 12.375 20.21484375 C13.10913012 32.53446479 7.23081754 43.52367467 0 53 C-0.680625 53.89589844 -1.36125 54.79179688 -2.0625 55.71484375 C-4.11525344 58.135934 -5.74420393 59.80852218 -8.97265625 60.30078125 C-10.98423929 60.31206115 -12.99469096 60.15915151 -15 60 C-17.54931396 56.17602906 -17.27222218 54.30597355 -16.73828125 49.8671875 C-15.60304212 45.4583752 -13.25382535 41.9909252 -10.8515625 38.16015625 C-6.88625714 31.39236714 -3.88455702 23.8266501 -3 16 C-3.82499353 14.00488226 -3.82499353 14.00488226 -6 13 C-19.99960177 9.80710837 -35.20824846 17.21438018 -46.93652344 24.46264648 C-51.83487759 27.60226201 -55.90344192 30.87494412 -60 35 C-61.33106622 35.34227417 -62.66400079 35.67751743 -64 36 C-64.67815158 37.32752878 -65.34308319 38.66183613 -66 40 C-67.35693359 41.64404297 -67.35693359 41.64404297 -68.8984375 43.2421875 C-69.46046875 43.83386719 -70.0225 44.42554688 -70.6015625 45.03515625 C-71.18679688 45.64230469 -71.77203125 46.24945313 -72.375 46.875 C-77.19942402 51.86224786 -77.19942402 51.86224786 -81.2890625 57.4453125 C-82.13597656 58.70988281 -82.13597656 58.70988281 -83 60 C-83.66 60 -84.32 60 -85 60 C-85.40532959 60.86153687 -85.40532959 60.86153687 -85.81884766 61.74047852 C-87.02177803 64.04166095 -88.37454077 66.05137432 -89.8984375 68.15234375 C-90.46046875 68.92900391 -91.0225 69.70566406 -91.6015625 70.50585938 C-92.47941406 71.70952148 -92.47941406 71.70952148 -93.375 72.9375 C-93.9525 73.73607422 -94.53 74.53464844 -95.125 75.35742188 C-97.99760011 79.31544509 -100.93361452 83.18921359 -104 87 C-106.07989758 89.94700982 -108.02942789 92.97903483 -110 96 C-110.35288086 96.53367187 -110.70576172 97.06734375 -111.06933594 97.6171875 C-115.39401874 104.15785405 -119.51904964 110.63053955 -122.8984375 117.72265625 C-123.97760009 119.95369097 -125.1498953 122.09618689 -126.375 124.25 C-127.25353993 125.83137188 -128.1281972 127.414904 -129 129 C-129.53625 129.969375 -130.0725 130.93875 -130.625 131.9375 C-134.36478366 139.01637622 -137.26887859 146.15537736 -139.8125 153.75 C-140.10237793 154.61270508 -140.39225586 155.47541016 -140.69091797 156.36425781 C-145.47508728 171.13118702 -148.7606362 189.4583709 -144.20703125 204.64453125 C-142.80715321 207.37633209 -141.65993254 208.49109281 -139 210 C-130.2012777 211.97724097 -120.57924487 208.32223197 -113.08447266 203.859375 C-102.28195966 196.81177528 -86.83150928 185.66301855 -81 174 C-80.34 174 -79.68 174 -79 174 C-78.6596875 173.195625 -78.6596875 173.195625 -78.3125 172.375 C-76.54429911 169.17539839 -74.46329797 166.70962777 -72 164 C-71.34 164 -70.68 164 -70 164 C-69.64421875 163.18595703 -69.64421875 163.18595703 -69.28125 162.35546875 C-67.66137928 159.37747472 -65.65257409 156.92983441 -63.5 154.3125 C-62.7059375 153.33925781 -61.911875 152.36601562 -61.09375 151.36328125 C-59 149 -59 149 -57 148 C-56.566875 147.2575 -56.13375 146.515 -55.6875 145.75 C-54 143 -54 143 -51.3125 140.375 C-48.65119166 138.19424068 -48.65119166 138.19424068 -49 135 C-50.11117187 135.45890625 -51.22234375 135.9178125 -52.3671875 136.390625 C-54.6542555 137.33503744 -56.94207293 138.27746419 -59.23193359 139.21508789 C-62.53736801 140.56856182 -65.83499076 141.92806758 -69.109375 143.35546875 C-73.95483226 145.43961729 -77.70456807 146.77225049 -83 146 C-85 143 -85 143 -84.9375 140.125 C-82.98317372 133.61057905 -77.28506283 130.60200159 -71.68359375 127.34765625 C-68.32788952 125.66247727 -64.99379027 124.61142678 -61.375 123.64453125 C-57.81895378 122.67948581 -54.42988056 121.33613821 -51 120 C-43.68846982 117.18787301 -37.79666237 115.76200205 -30 115.625 C-28.78957031 115.56892578 -28.78957031 115.56892578 -27.5546875 115.51171875 C-21.65125761 115.42404405 -21.65125761 115.42404405 -18.5 118.2109375 C-14.65392293 125.36223704 -16.80199276 131.56347836 -19 139 C-20.56405187 143.17515682 -22.37333581 147.20716575 -24.25 151.25 C-25.24110171 153.44202245 -26.23068286 155.63473303 -27.21875 157.828125 C-27.69699219 158.88322266 -28.17523438 159.93832031 -28.66796875 161.02539062 C-30.44136893 164.98563765 -32.11577296 168.98067192 -33.75 173 C-34.02078369 173.66418945 -34.29156738 174.32837891 -34.57055664 175.01269531 C-35.10677804 176.33098048 -35.64202585 177.64966211 -36.17626953 178.96875 C-41.11511888 191.14753678 -46.04103551 203.27780342 -52 215 C-52.8552289 216.7078018 -53.70935522 218.41615611 -54.5625 220.125 C-55.20058594 221.39923828 -55.20058594 221.39923828 -55.8515625 222.69921875 C-56.72122367 224.44149913 -57.58157291 226.1884316 -58.4375 227.9375 C-61.94572928 234.81362939 -65.59736693 241.58703877 -69.82421875 248.05078125 C-71.09646531 250.09936747 -71.09646531 250.09936747 -72.3671875 252.7578125 C-74.23416205 256.46496292 -76.30092504 260.00629761 -78.4375 263.5625 C-78.81970703 264.20896484 -79.20191406 264.85542969 -79.59570312 265.52148438 C-81.83371383 269.25656845 -84.22127795 272.63574317 -87 276 C-88.01276942 277.31651405 -89.02006963 278.63724416 -90.0234375 279.9609375 C-90.57 280.68023437 -91.1165625 281.39953125 -91.6796875 282.140625 C-92.8032799 283.62148871 -93.92569065 285.10324978 -95.046875 286.5859375 C-97.73493764 290.11954097 -100.45550679 293.62055904 -103.2890625 297.0390625 C-103.7629541 297.61092285 -104.2368457 298.1827832 -104.72509766 298.77197266 C-106 300 -106 300 -108 300 C-108.268125 300.639375 -108.53625 301.27875 -108.8125 301.9375 C-110 304 -110 304 -113 305 C-113.25652344 305.55945313 -113.51304687 306.11890625 -113.77734375 306.6953125 C-115.63825479 310.20310008 -118.54500005 312.35094261 -121.5625 314.875 C-122.51141113 315.67671631 -122.51141113 315.67671631 -123.47949219 316.49462891 C-128.11071185 320.36185083 -132.83369939 323.87377422 -138 327 C-138.79792969 327.49886719 -139.59585938 327.99773437 -140.41796875 328.51171875 C-157.33047342 338.92143093 -176.03905459 346.49375163 -196.26171875 342.328125 C-198.55337802 341.6350697 -200.78077363 340.89622604 -203 340 C-203 339.34 -203 338.68 -203 338 C-203.61875 337.896875 -204.2375 337.79375 -204.875 337.6875 C-207 337 -207 337 -209 334 C-208.625 331.3125 -208.625 331.3125 -208 329 C-202.52395171 328.14012465 -197.41234761 328.01364037 -191.87939453 328.21801758 C-180.40558242 328.58651262 -172.17465237 327.40326913 -162 322 C-160.76830078 321.39091797 -160.76830078 321.39091797 -159.51171875 320.76953125 C-145.27593183 313.36085351 -131.82691183 303.33414173 -121.72265625 290.84375 C-120 289 -120 289 -117.15625 286.74609375 C-113.5733788 283.81712007 -111.07446158 280.33549924 -108.4375 276.5625 C-107.52148374 275.27074864 -106.60353237 273.98036719 -105.68359375 272.69140625 C-105.24063965 272.07040039 -104.79768555 271.44939453 -104.34130859 270.80957031 C-103.03724527 269.0502479 -101.67129598 267.37581873 -100.25390625 265.70703125 C-97.92468939 262.90954896 -96.57078467 260.27246807 -95 257 C-93.3909648 254.29756637 -91.68542754 251.65530273 -90 249 C-88.61883253 246.81607961 -87.2438982 244.62905487 -85.875 242.4375 C-85.21242188 241.38433594 -84.54984375 240.33117187 -83.8671875 239.24609375 C-81.94915476 235.91160586 -80.47472025 232.54980474 -79 229 C-78.09992382 227.15846483 -77.18340865 225.32486635 -76.25 223.5 C-71.22442262 213.52366773 -66.54764434 203.43865823 -62.3125 193.1015625 C-58.5787784 184.27842276 -54.43003118 175.61297275 -49.9453125 167.1484375 C-48.90468825 164.78338239 -48.41938984 162.54310861 -48 160 C-48.78375 160.99 -49.5675 161.98 -50.375 163 C-51.674375 164.485 -51.674375 164.485 -53 166 C-53.66 166 -54.32 166 -55 166 C-55.21785156 166.69738281 -55.43570313 167.39476562 -55.66015625 168.11328125 C-57.33516458 171.72211844 -59.73192543 174.33377141 -62.4375 177.1875 C-62.92798828 177.72052734 -63.41847656 178.25355469 -63.92382812 178.80273438 C-66.17189397 181.21462688 -68.24446526 183.16297684 -71 185 C-71.45375 185.78375 -71.9075 186.5675 -72.375 187.375 C-74.23544116 190.38032802 -76.23673522 191.80194847 -79 194 C-80.03985355 195.17088067 -81.0585506 196.36069196 -82.0625 197.5625 C-88.91164496 205.5481843 -96.7487385 212.91938918 -106 218 C-106.6703125 218.42796875 -107.340625 218.8559375 -108.03125 219.296875 C-117.88307993 225.36503112 -128.66984298 227.11322871 -140 225 C-147.82995711 223.07221966 -153.44247959 218.68436327 -158 212 C-163.55698949 201.69682732 -163.40328106 191.48246128 -163 180 C-162.95617187 178.74574219 -162.91234375 177.49148437 -162.8671875 176.19921875 C-161.59127895 159.66148096 -155.77465864 142.85739462 -148.1340332 128.20361328 C-146.59051633 125.20430578 -145.31114173 122.10667748 -144 119 C-136.78177694 103.52508312 -128.16321445 88.73573832 -118 75 C-117.34862061 74.11513916 -117.34862061 74.11513916 -116.68408203 73.21240234 C-110.94812625 65.4335034 -105.11779103 57.76476762 -98.9375 50.33203125 C-97.57224254 48.68876774 -96.24176213 47.01630125 -94.9375 45.32421875 C-93 43 -93 43 -90 41 C-89.67 40.01 -89.34 39.02 -89 38 C-87.546875 36.60546875 -87.546875 36.60546875 -85.75 35.1875 C-82.34806673 32.38264073 -79.76922559 29.42509481 -77 26 C-60.94432369 8.60635067 -23.34964349 -16.21089898 0 0 Z " fill="#EAEBEB" transform="translate(496,55)"/>
<path d="M0 0 C0.928125 0.886875 1.85625 1.77375 2.8125 2.6875 C5.46136348 4.63216665 6.50106827 5.06592283 9.80859375 4.62890625 C11.73858964 4.05221425 13.65352803 3.42190323 15.546875 2.734375 C18 2 18 2 21 3 C20.814375 3.556875 20.62875 4.11375 20.4375 4.6875 C19.92466328 7.39820835 20.43659697 9.32383562 21 12 C20.67 12.66 20.34 13.32 20 14 C20.99 14 21.98 14 23 14 C23.33 13.34 23.66 12.68 24 12 C27 12 27 12 29 13 C21.06700361 18.1233935 11.35225827 19.04585089 2.10546875 17.5234375 C-2.18158948 16.22949953 -5.15817689 14.58316826 -8 11 C-7.34 10.67 -6.68 10.34 -6 10 C-6 9.01 -6 8.02 -6 7 C-5.38125 6.71125 -4.7625 6.4225 -4.125 6.125 C-1.86674235 5.06279958 -1.86674235 5.06279958 0 3 C0 3.66 0 4.32 0 5 C0.66 4.67 1.32 4.34 2 4 C1.34 2.68 0.68 1.36 0 0 Z " fill="#E3E3E4" transform="translate(61,376)"/>
<path d="M0 0 C5.70738844 4.25018288 5.70738844 4.25018288 7 7.5625 C7 10.28256929 6.43716841 11.7174384 5 14 C4.44570313 13.83242187 3.89140625 13.66484375 3.3203125 13.4921875 C2.59585937 13.28851563 1.87140625 13.08484375 1.125 12.875 C0.04605469 12.56175781 0.04605469 12.56175781 -1.0546875 12.2421875 C-1.69664062 12.16226563 -2.33859375 12.08234375 -3 12 C-3.66 12.66 -4.32 13.32 -5 14 C-6.98356483 14.71408334 -8.98315437 15.38617742 -11 16 C-10.130134 10.92578169 -9.14688347 6.34940588 -5 3 C-3.68252676 2.30251417 -2.35085807 1.63040043 -1 1 C-0.67 0.67 -0.34 0.34 0 0 Z " fill="#F1F1F2" transform="translate(445,198)"/>
<path d="M0 0 C0.66 0.33 1.32 0.66 2 1 C1.72349609 1.82757813 1.72349609 1.82757813 1.44140625 2.671875 C0.9081198 5.48460705 1.31461854 7.46535347 1.9375 10.25 C2.22947266 11.58804688 2.22947266 11.58804688 2.52734375 12.953125 C2.68332031 13.62859375 2.83929688 14.3040625 3 15 C-0.542799 16.180933 -3.28359861 16.27028374 -7 16 C-9 13 -9 13 -8.9375 10.125 C-7.44624213 5.15414043 -4.21099411 2.80732941 0 0 Z " fill="#DFDFE0" transform="translate(420,185)"/>
<path d="M0 0 C0.9075 0.350625 1.815 0.70125 2.75 1.0625 C5.97946958 1.99407776 6.96139295 2.04779553 10 1 C10.99 1 11.98 1 13 1 C13 1.99 13 2.98 13 4 C12.15115234 4.25523437 12.15115234 4.25523437 11.28515625 4.515625 C10.18494141 4.87914062 10.18494141 4.87914062 9.0625 5.25 C8.33160156 5.48203125 7.60070312 5.7140625 6.84765625 5.953125 C4.79429444 6.8507553 4.79429444 6.8507553 4.24609375 9.109375 C4.12427734 10.04523438 4.12427734 10.04523438 4 11 C3.01 11 2.02 11 1 11 C1.33 10.01 1.66 9.02 2 8 C1.01 7.67 0.02 7.34 -1 7 C-0.67 4.69 -0.34 2.38 0 0 Z " fill="#F8F9F9" transform="translate(386,339)"/>
<path d="M0 0 C3.33864404 0.57562828 4.69102632 1.59063616 7 4 C7.99 4.33 8.98 4.66 10 5 C9.01 5.495 9.01 5.495 8 6 C8 6.66 8 7.32 8 8 C5.36 7.67 2.72 7.34 0 7 C-1.125 2.25 -1.125 2.25 0 0 Z " fill="#D1D3D3" transform="translate(248,78)"/>
<path d="M0 0 C0.99 0.33 1.98 0.66 3 1 C3 1.99 3 2.98 3 4 C6.465 3.505 6.465 3.505 10 3 C2.8 9 2.8 9 -3 9 C-2.30058404 5.85262818 -1.23921302 2.97411124 0 0 Z " fill="#D0D0D1" transform="translate(340,383)"/>
<path d="M0 0 C1.76923828 0.01353516 1.76923828 0.01353516 3.57421875 0.02734375 C4.47785156 0.03894531 5.38148438 0.05054687 6.3125 0.0625 C6.3125 0.3925 6.3125 0.7225 6.3125 1.0625 C4.7346875 1.495625 4.7346875 1.495625 3.125 1.9375 C1.866875 2.30875 0.60875 2.68 -0.6875 3.0625 C-1.615625 3.330625 -2.54375 3.59875 -3.5 3.875 C-5.93186028 4.9248207 -5.93186028 4.9248207 -7 7.6875 C-7.226875 8.47125 -7.45375 9.255 -7.6875 10.0625 C-8.46071882 7.08008453 -9.09946203 4.08669525 -9.6875 1.0625 C-6.26517028 -0.07827657 -3.60076783 -0.03565117 0 0 Z " fill="#D4D6D5" transform="translate(308.6875,64.9375)"/>
<path d="M0 0 C-2.64 2.97 -5.28 5.94 -8 9 C-8.66 8.34 -9.32 7.68 -10 7 C-8.54347826 1.41666667 -8.54347826 1.41666667 -6.125 -0.4375 C-4 -1 -4 -1 0 0 Z " fill="#D1D1D5" transform="translate(399,344)"/>
<path d="M0 0 C0.33 1.32 0.66 2.64 1 4 C0.34 4 -0.32 4 -1 4 C-1.20625 5.0725 -1.4125 6.145 -1.625 7.25 C-3.27286864 11.74418721 -4.80029002 12.85729083 -9 15 C-9.99 15 -10.98 15 -12 15 C-11.55269531 14.50371094 -11.10539062 14.00742187 -10.64453125 13.49609375 C-6.79082253 9.16580698 -3.28393802 4.77663712 0 0 Z " fill="#CBCBCE" transform="translate(390,328)"/>
<path d="M0 0 C1 3 1 3 0.109375 5.375 C-0.33921875 6.24125 -0.7878125 7.1075 -1.25 8 C-1.68828125 8.86625 -2.1265625 9.7325 -2.578125 10.625 C-3.87579238 12.79253233 -5.12777789 14.32601317 -7 16 C-7.33 15.01 -7.66 14.02 -8 13 C-6.68 12.34 -5.36 11.68 -4 11 C-4.0825 9.9275 -4.165 8.855 -4.25 7.75 C-4 4 -4 4 -2 1.5625 C-1.34 1.046875 -0.68 0.53125 0 0 Z " fill="#B9B9BB" transform="translate(440,273)"/>
<path d="M0 0 C1.125 3.75 1.125 3.75 0 6 C0.99 6.33 1.98 6.66 3 7 C1.60667426 10.36720387 0.0210714 11.9859524 -3 14 C-2.48594831 9.03083364 -1.76615118 4.70973649 0 0 Z " fill="#CDCDCE" transform="translate(211,265)"/>
<path d="M0 0 C0.33 0 0.66 0 1 0 C1.16987681 1.87471188 1.33574776 3.74978695 1.5 5.625 C1.5928125 6.66914063 1.685625 7.71328125 1.78125 8.7890625 C1.99124355 11.87146788 2.03709727 14.91165229 2 18 C1.67 18 1.34 18 1 18 C0.49528803 16.23050388 -0.00360685 14.45934777 -0.5 12.6875 C-0.7784375 11.70136719 -1.056875 10.71523437 -1.34375 9.69921875 C-2 7 -2 7 -2 4 C-1.34 4 -0.68 4 0 4 C0 2.68 0 1.36 0 0 Z " fill="#979899" transform="translate(348,238)"/>
<path d="M0 0 C0.66 0.33 1.32 0.66 2 1 C0.86500606 4.29148243 0.00716624 4.9959869 -3.125 6.75 C-4.548125 7.36875 -4.548125 7.36875 -6 8 C-5.8125 5.6875 -5.8125 5.6875 -5 3 C-2.5625 1.125 -2.5625 1.125 0 0 Z " fill="#D9D9DA" transform="translate(338,375)"/>
<path d="M0 0 C2.475 0.99 2.475 0.99 5 2 C5 5.10551666 4.4606285 6.35261084 3 9 C2.34 8.67 1.68 8.34 1 8 C1.33 7.34 1.66 6.68 2 6 C1.34 5.67 0.68 5.34 0 5 C-0.33 4.01 -0.66 3.02 -1 2 C-0.67 1.34 -0.34 0.68 0 0 Z " fill="#FAFAF9" transform="translate(106,257)"/>
<path d="M0 0 C0.66 0.33 1.32 0.66 2 1 C1.34 2.98 0.68 4.96 0 7 C-2.97 6.505 -2.97 6.505 -6 6 C-4 4 -2 2 0 0 Z " fill="#D5D5D7" transform="translate(360,360)"/>
<path d="M0 0 C2.31 0 4.62 0 7 0 C5.68 2.64 4.36 5.28 3 8 C2.67 6.68 2.34 5.36 2 4 C1.34 4 0.68 4 0 4 C0 2.68 0 1.36 0 0 Z " fill="#D7D7D7" transform="translate(137,327)"/>
<path d="M0 0 C1.15957207 3.47871621 0.77456651 4.34219645 -0.4375 7.6875 C-0.72496094 8.49574219 -1.01242188 9.30398438 -1.30859375 10.13671875 C-1.53675781 10.75160156 -1.76492187 11.36648438 -2 12 C-3.32 11.34 -4.64 10.68 -6 10 C-4.25 6.125 -4.25 6.125 -2 5 C-1.27840576 3.35636866 -0.60648579 1.68949614 0 0 Z " fill="#D2D3D4" transform="translate(231,256)"/>
<path d="M0 0 C0.99 0.33 1.98 0.66 3 1 C3 4.38023517 2.12544378 6.83468937 1 10 C0.34 9.67 -0.32 9.34 -1 9 C-1.09765625 2.84765625 -1.09765625 2.84765625 -1 1 C-0.67 0.67 -0.34 0.34 0 0 Z " fill="#F7F8F8" transform="translate(450,242)"/>
<path d="M0 0 C0 3.19131 -0.13209062 4.45285085 -2 7 C-5.125 7.75 -5.125 7.75 -8 8 C-6.49776416 3.79373966 -3.71449966 2.26099979 0 0 Z " fill="#A2A4A2" transform="translate(431,71)"/>
<path d="M0 0 C0 3 0 3 -2.125 5.5625 C-5.07929244 8.0672262 -7.28350424 9.04926853 -11 10 C-7.50640535 6.40365256 -3.88901869 3.16548033 0 0 Z " fill="#9F9FA5" transform="translate(314,158)"/>
<path d="M0 0 C0.68707555 2.49064888 1 4.37886292 1 7 C-0.98 7.66 -2.96 8.32 -5 9 C-4.3566152 7.686298 -3.71021785 6.37407102 -3.0625 5.0625 C-2.70285156 4.33160156 -2.34320313 3.60070312 -1.97265625 2.84765625 C-1 1 -1 1 0 0 Z " fill="#B4B5B9" transform="translate(364,152)"/>
<path d="M0 0 C1.32 0.33 2.64 0.66 4 1 C3.67 1.99 3.34 2.98 3 4 C1.66923011 4.34342449 0.33568021 4.67619874 -1 5 C-1.99 6.485 -1.99 6.485 -3 8 C-3.66 7.67 -4.32 7.34 -5 7 C-3.35 4.69 -1.7 2.38 0 0 Z " fill="#B3B4B7" transform="translate(347,121)"/>
<path d="M0 0 C0.75 1.75 0.75 1.75 1 4 C-0.8125 6.25 -0.8125 6.25 -3 8 C-3.66 8 -4.32 8 -5 8 C-3.8141763 4.62496331 -2.72426311 2.35277269 0 0 Z " fill="#F9F9FB" transform="translate(399,319)"/>
<path d="M0 0 C0.99 0.99 1.98 1.98 3 3 C2.34 4.65 1.68 6.3 1 8 C-0.32 7.67 -1.64 7.34 -3 7 C-2.67 6.01 -2.34 5.02 -2 4 C-1.34 4 -0.68 4 0 4 C0 2.68 0 1.36 0 0 Z " fill="#F8F9FB" transform="translate(275,95)"/>
<path d="M0 0 C-0.99 2.97 -1.98 5.94 -3 9 C-3.33 9 -3.66 9 -4 9 C-4.33 6.36 -4.66 3.72 -5 1 C-2 0 -2 0 0 0 Z " fill="#AAABAB" transform="translate(448,260)"/>
<path d="M0 0 C0.33 0.99 0.66 1.98 1 3 C0.34 3.66 -0.32 4.32 -1 5 C-3.475 4.01 -3.475 4.01 -6 3 C-4.60722783 0.21445565 -3.01148006 0 0 0 Z " fill="#F8F9F9" transform="translate(367,359)"/>
<path d="M0 0 C0.66 0.33 1.32 0.66 2 1 C-3.625 6 -3.625 6 -7 6 C-7.33 6.66 -7.66 7.32 -8 8 C-8.66 7.34 -9.32 6.68 -10 6 C-8.3811004 4.96951963 -6.75467511 3.95085322 -5.125 2.9375 C-4.22007812 2.36902344 -3.31515625 1.80054688 -2.3828125 1.21484375 C-1.20332031 0.61349609 -1.20332031 0.61349609 0 0 Z " fill="#A8A8AB" transform="translate(451,58)"/>
<path d="M0 0 C2.31 0.66 4.62 1.32 7 2 C7.33 1.34 7.66 0.68 8 0 C8.33 0.99 8.66 1.98 9 3 C5.06329512 4.31223496 2.87511856 3.24296256 -1 2 C-0.67 1.34 -0.34 0.68 0 0 Z " fill="#F8F8F9" transform="translate(304,394)"/>
<path d="M0 0 C1.65 0.33 3.3 0.66 5 1 C4.34 2.32 3.68 3.64 3 5 C1.68 4.67 0.36 4.34 -1 4 C-0.67 2.68 -0.34 1.36 0 0 Z " fill="#F7F8F9" transform="translate(50,378)"/>
<path d="M0 0 C0.66 0.33 1.32 0.66 2 1 C1.01 3.31 0.02 5.62 -1 8 C-1.99 7.67 -2.98 7.34 -4 7 C-4 6.34 -4 5.68 -4 5 C-3.34 5 -2.68 5 -2 5 C-1.34 3.35 -0.68 1.7 0 0 Z " fill="#F9F9F8" transform="translate(340,375)"/>
<path d="M0 0 C0.98120464 3.05263664 0.98120464 4.94736336 0 8 C-1.32 8 -2.64 8 -4 8 C-3.67 7.401875 -3.34 6.80375 -3 6.1875 C-1.79212012 3.94613529 -1.79212012 3.94613529 -2 1 C-1.34 0.67 -0.68 0.34 0 0 Z " fill="#F9FAFB" transform="translate(61,337)"/>
<path d="M0 0 C0.33 0.99 0.66 1.98 1 3 C1.99 2.67 2.98 2.34 4 2 C4 3.32 4 4.64 4 6 C2.35 6.33 0.7 6.66 -1 7 C-0.67 4.69 -0.34 2.38 0 0 Z " fill="#D7D8DC" transform="translate(355,100)"/>
<path d="M0 0 C0.99 0.33 1.98 0.66 3 1 C1.99088542 2.7578125 0.98177083 4.515625 -0.02734375 6.2734375 C-0.71719051 7.49798475 -1.37144538 8.74289077 -2 10 C-2.66 9.67 -3.32 9.34 -4 9 C-2.68 6.03 -1.36 3.06 0 0 Z " fill="#BEBEBF" transform="translate(140,300)"/>
<path d="M0 0 C0.99 0.33 1.98 0.66 3 1 C1.35 2.65 -0.3 4.3 -2 6 C-2.66 5.34 -3.32 4.68 -4 4 C-3.67 3.34 -3.34 2.68 -3 2 C-2.01 2 -1.02 2 0 2 C0 1.34 0 0.68 0 0 Z " fill="#D1D1D6" transform="translate(97,281)"/>
<path d="M0 0 C0.66 0.33 1.32 0.66 2 1 C0.35 3.64 -1.3 6.28 -3 9 C-4.33332095 6.3333581 -3.67102033 4.83319697 -3 2 C-2.01 2 -1.02 2 0 2 C0 1.34 0 0.68 0 0 Z " fill="#A8A6AB" transform="translate(382,153)"/>
<path d="M0 0 C0.33 0.66 0.66 1.32 1 2 C0.06553465 4.03144641 -0.93224776 6.03533587 -2 8 C-3.4606285 5.35261084 -4 4.10551666 -4 1 C-2.68 0.67 -1.36 0.34 0 0 Z " fill="#919493" transform="translate(366,117)"/>
<path d="M0 0 C3 2 3 2 4 4 C0.32589215 5.17571451 -3.16929183 5.07366746 -7 5 C-7 4.67 -7 4.34 -7 4 C-5.02 4 -3.04 4 -1 4 C-0.67 2.68 -0.34 1.36 0 0 Z " fill="#8F8F91" transform="translate(322,60)"/>
<path d="M0 0 C2.125 0.375 2.125 0.375 4 1 C2.35 2.65 0.7 4.3 -1 6 C-1.625 4.125 -1.625 4.125 -2 2 C-1.34 1.34 -0.68 0.68 0 0 Z " fill="#C2C4C9" transform="translate(91,287)"/>
<path d="M0 0 C1.5 1.375 1.5 1.375 3 3 C3 3.66 3 4.32 3 5 C1.68 5.33 0.36 5.66 -1 6 C-1.66 5.01 -2.32 4.02 -3 3 C-2.01 2.01 -1.02 1.02 0 0 Z " fill="#F9FBF9" transform="translate(275,193)"/>
<path d="M0 0 C1.21236328 0.01353516 1.21236328 0.01353516 2.44921875 0.02734375 C3.37154297 0.04474609 3.37154297 0.04474609 4.3125 0.0625 C4.3125 0.3925 4.3125 0.7225 4.3125 1.0625 C2.69078761 1.45147161 1.06495075 1.82328298 -0.5625 2.1875 C-1.46742188 2.39632812 -2.37234375 2.60515625 -3.3046875 2.8203125 C-4.09101563 2.90023437 -4.87734375 2.98015625 -5.6875 3.0625 C-6.3475 2.4025 -7.0075 1.7425 -7.6875 1.0625 C-4.80538698 0.10179566 -2.98899956 -0.04331883 0 0 Z " fill="#BBBCBB" transform="translate(310.6875,64.9375)"/>
<path d="M0 0 C0.99 0.33 1.98 0.66 3 1 C1.02 3.97 1.02 3.97 -1 7 C-1.625 5.1875 -1.625 5.1875 -2 3 C-1.34 2.01 -0.68 1.02 0 0 Z " fill="#A6A6A9" transform="translate(129,346)"/>
<path d="M0 0 C0.625 1.8125 0.625 1.8125 1 4 C0.01 5.485 0.01 5.485 -1 7 C-3 4 -3 4 -3 1 C-2.01 0.67 -1.02 0.34 0 0 Z " fill="#F5F6F7" transform="translate(182,202)"/>
<path d="M0 0 C-0.33 0.99 -0.66 1.98 -1 3 C-4.0625 4.1875 -4.0625 4.1875 -7 5 C-6.1875 3.0625 -6.1875 3.0625 -5 1 C-2 0 -2 0 0 0 Z " fill="#F9F9FB" transform="translate(225,201)"/>
<path d="M0 0 C0.99 0 1.98 0 3 0 C1.87548273 2.9719385 0.77706209 5.33440687 -1 8 C-1.93065133 5.39417629 -2.14917407 4.35801776 -1.0625 1.75 C-0.711875 1.1725 -0.36125 0.595 0 0 Z " fill="#BCBDBD" transform="translate(363,184)"/>
</svg>
