<?xml version="1.0" encoding="UTF-8"?>
<svg version="1.1" xmlns="http://www.w3.org/2000/svg" width="1024" height="1024">
<path d="M0 0 C3.35519607 1.32809845 4.73569097 2.67303084 6.3046875 5.9296875 C10.74290611 20.34143107 2.56180993 38.09105737 -2.19747925 51.71185303 C-3.42108218 55.21374461 -4.62950422 58.72083108 -5.83930969 62.22750854 C-6.50056372 64.14372688 -7.16259822 66.05967604 -7.82536316 67.97537231 C-10.45255069 75.57509924 -13.04180189 83.18726363 -15.6171875 90.8046875 C-16.01064865 91.96831818 -16.4041098 93.13194885 -16.80949402 94.33084106 C-17.61352749 96.70912579 -18.4174974 99.08743201 -19.22140503 101.46575928 C-25.6824828 120.5751398 -32.2307596 139.64966928 -38.92016602 158.68026733 C-44.91516639 175.7535389 -50.54081573 192.93606321 -56 210.1875 C-55.19594727 209.94628418 -54.39189453 209.70506836 -53.56347656 209.45654297 C-51.86916504 208.94824951 -51.86916504 208.94824951 -50.140625 208.4296875 C-48.88805908 208.05384521 -47.63549316 207.67800293 -46.3449707 207.29077148 C-43.60673782 206.46926452 -40.86827289 205.64853715 -38.12963867 204.82836914 C-31.96923318 202.9828261 -25.81013658 201.13398312 -19.66015625 199.25390625 C-18.74395508 198.97498535 -17.82775391 198.69606445 -16.88378906 198.40869141 C-15.20632253 197.89742407 -13.52983667 197.38292475 -11.85449219 196.86474609 C-8.80066735 195.93662286 -6.21128535 195.1875 -3 195.1875 C-2.5978125 193.93710937 -2.195625 192.68671875 -1.78125 191.3984375 C0.0939006 185.77952691 2.29697222 180.30925399 4.5 174.8125 C9.86103304 161.30099835 14.94412055 147.69069239 20 134.0625 C26.65869285 116.11866662 33.37873781 98.19996647 40.1875 80.3125 C40.57510498 79.29412048 40.96270996 78.27574097 41.36206055 77.22650146 C43.54612274 71.48978357 45.73269024 65.7540239 47.92034912 60.01867676 C49.7984655 55.0936778 51.67454861 50.16790433 53.55078125 45.2421875 C54.22045646 43.48421128 54.89013393 41.72623592 55.55981445 39.96826172 C56.0398783 38.70800857 56.519941 37.44775499 57 36.1875 C56.67 35.8575 56.34 35.5275 56 35.1875 C48.86774743 37.03443758 42.72841086 39.65771739 36.3125 43.25 C22.25303025 51.07587352 22.25303025 51.07587352 13 49.1875 C12.25 47.5625 12.25 47.5625 12 45.1875 C19.44219082 29.96483696 42.53061556 22.36888196 57.4140625 17.0390625 C83.60574563 8.11071176 115.40780311 0.16436527 141.7421875 12.46875 C154.2980535 19.50942252 164.46438128 30.1154167 168.51171875 44.14453125 C173.98221583 67.03309102 164.43010122 92.65975332 152.74072266 112.30371094 C147.432766 120.75938641 141.41500862 128.34320743 134.5078125 135.5390625 C132.71422575 137.43322421 131.05086308 139.30670375 129.40625 141.3203125 C127.47553927 143.62086717 125.66318428 145.52227968 123.375 147.4375 C121.11271924 149.35751688 118.89592413 151.28617401 116.7421875 153.328125 C90.75163816 177.93359804 59.75539263 193.49368101 25.89697266 204.13208008 C24.78628418 204.48681396 23.6755957 204.84154785 22.53125 205.20703125 C21.03948242 205.67266479 21.03948242 205.67266479 19.51757812 206.14770508 C15.35330314 207.8676088 14.34997904 209.41625921 12.47290039 213.55273438 C11.92258874 214.9589182 11.38146512 216.36871895 10.84765625 217.78125 C10.55140854 218.54758759 10.25516083 219.31392517 9.94993591 220.10348511 C8.97804406 222.62799819 8.01940088 225.15726971 7.0625 227.6875 C6.73185547 228.5553009 6.40121094 229.42310181 6.06054688 230.31719971 C-11.86603034 274.46231864 -11.86603034 274.46231864 -21.515625 320.7109375 C-22.06962674 323.5434948 -22.63263546 324.55924223 -25 326.1875 C-30.2743501 326.08982685 -33.27807467 324.90942533 -37 321.1875 C-40.97934588 315.29539586 -39.75757284 305.965022 -39 299.1875 C-37.65522829 292.34877445 -35.2473855 285.8095164 -32.9375 279.25 C-32.31009486 277.40465085 -31.68497787 275.55852235 -31.06201172 273.71166992 C-29.41780697 268.86245172 -27.73894684 264.02603056 -26.04888916 259.19262695 C-24.98125784 256.13380265 -23.92175441 253.07227597 -22.86474609 250.00976562 C-18.62246477 237.71934523 -14.33556253 225.4453177 -10 213.1875 C-24.56842592 217.18583725 -39.13535212 221.18510391 -53.65112305 225.37158203 C-54.437854 225.5982959 -55.22458496 225.82500977 -56.03515625 226.05859375 C-56.7094165 226.25380615 -57.38367676 226.44901855 -58.07836914 226.65014648 C-60.04404074 227.19981529 -62.01767847 227.70165584 -64 228.1875 C-64.09410156 228.84234375 -64.18820312 229.4971875 -64.28515625 230.171875 C-65.22694966 234.14490512 -66.80928423 237.70204323 -68.4375 241.4375 C-71.2276519 247.92927453 -73.90596714 254.45039589 -76.4765625 261.03222656 C-80.95283444 272.46476949 -85.87206891 283.61768691 -91.10327148 294.72412109 C-94.77268328 302.51669207 -98.31108639 310.35314533 -101.75 318.25 C-116.42598929 351.77866884 -133.64665496 383.76918524 -158.7578125 410.7578125 C-160.61760375 412.77312636 -162.38433381 414.82047355 -164.125 416.9375 C-167.40392845 420.7811328 -171.0895762 423.99951043 -175 427.1875 C-175.86367188 427.90035156 -176.72734375 428.61320312 -177.6171875 429.34765625 C-190.66536459 439.65536254 -204.02649184 446.68465046 -221 445.1875 C-230.69972747 442.88878275 -237.85830943 438.59281725 -243.30078125 430.17578125 C-251.87035685 414.31427586 -249.1146377 393.63895804 -244.48046875 376.98828125 C-231.64822521 334.19439853 -201.01239835 295.24508144 -166 268.1875 C-164.31220754 266.75034339 -162.62472081 265.31282769 -160.9375 263.875 C-141.87083879 248.28984041 -119.39897555 236.04187927 -97.5625 224.8125 C-96.63179687 224.33296875 -95.70109375 223.8534375 -94.7421875 223.359375 C-92 222.1875 -92 222.1875 -89.0703125 221.640625 C-85.69234488 220.9632006 -83.74052365 220.30736279 -81 218.1875 C-77.96256805 213.03614886 -76.63577972 206.9546797 -74.96044922 201.26171875 C-73.26176426 195.82454515 -71.13226577 190.55438343 -69.0625 185.25 C-62.45488204 168.01564983 -56.33368013 150.60969677 -50.19232178 133.20500183 C-47.72567074 126.2206667 -45.22981499 119.24722577 -42.72265625 112.27734375 C-32.09038947 82.66285295 -22.2470491 52.83714044 -13.02140808 22.75453186 C-12.45665594 20.91592351 -11.88678074 19.0788911 -11.31665039 17.24194336 C-10.6767413 15.17596893 -10.0471898 13.10673755 -9.43139648 11.03344727 C-6.12958156 0.38309885 -6.12958156 0.38309885 0 0 Z M81 30.1875 C79.37227806 32.94508453 79.37227806 32.94508453 78.1953125 36.25 C77.95494263 36.85996826 77.71457275 37.46993652 77.46691895 38.09838867 C76.94622789 39.42416163 76.43288386 40.75283845 75.92608643 42.08398438 C74.53548881 45.73545533 73.09198027 49.36609451 71.65625 53 C71.20881943 54.13900757 71.20881943 54.13900757 70.75234985 55.30102539 C67.86190467 62.62530386 64.72129967 69.83117778 61.56219482 77.04251099 C52.92851644 96.80269831 45.35522791 116.92199865 38 137.1875 C37.66234619 138.11773987 37.32469238 139.04797974 36.97680664 140.00640869 C34.55468172 146.6870547 32.1472287 153.3728825 29.75 160.0625 C29.42926514 160.95663605 29.10853027 161.85077209 28.77807617 162.77200317 C25.64500378 171.52133267 22.53492257 180.24179498 20 189.1875 C23.75306777 190.43852259 24.61466275 189.76656135 28.1640625 188.1953125 C29.1955542 187.74212646 30.2270459 187.28894043 31.28979492 186.82202148 C32.3904126 186.32387939 33.49103027 185.8257373 34.625 185.3125 C35.75204346 184.80726807 36.87908691 184.30203613 38.0402832 183.78149414 C52.7552863 177.11688912 66.07804834 169.87501931 79 160.1875 C80.85350812 158.87407017 82.70763868 157.56151811 84.5625 156.25 C94.05149861 149.32219128 102.85629133 141.65267085 111 133.1875 C113.56541754 130.59659818 116.15295077 128.04223949 118.796875 125.53125 C138.01655846 107.16462579 152.26977128 80.11081926 153.3125 53.125 C153.07197371 44.69321745 150.84520344 37.99674553 144.94140625 31.87109375 C141.8597158 29.19864187 138.81187095 27.59653087 135 26.1875 C134.2575 25.88972656 133.515 25.59195312 132.75 25.28515625 C118.29156019 20.3828415 93.6811805 20.81191857 81 30.1875 Z M-95.7331543 241.23193359 C-96.70055542 241.73587646 -96.70055542 241.73587646 -97.6875 242.25 C-98.37303955 242.60143066 -99.0585791 242.95286133 -99.76489258 243.31494141 C-115.33136219 251.43228995 -130.38831341 260.07319568 -144 271.1875 C-145.95416947 272.60990486 -147.91256795 274.02651653 -149.875 275.4375 C-157.44973872 281.10607917 -164.21158613 287.61351353 -171 294.1875 C-171.59022949 294.75581543 -172.18045898 295.32413086 -172.78857422 295.90966797 C-180.06598452 302.94184119 -186.80578305 310.16265015 -193 318.1875 C-193.71414062 319.09628906 -194.42828125 320.00507812 -195.1640625 320.94140625 C-209.29208531 339.28786697 -221.21089408 358.96449328 -228 381.1875 C-228.51046875 382.78078125 -228.51046875 382.78078125 -229.03125 384.40625 C-230.92515277 391.21027105 -231.29752222 397.85280746 -231.375 404.875 C-231.38901855 405.7422168 -231.40303711 406.60943359 -231.41748047 407.50292969 C-231.36166601 415.03931317 -230.37632957 422.34749636 -225.4375 428.25 C-221.36841026 431.48440467 -218.08183943 431.7668628 -213 431.1875 C-180.51616779 423.04200733 -157.72449561 385.690858 -141.66552734 359.04345703 C-137.23045648 351.4384352 -133.22873399 343.60528312 -129.28271484 335.73828125 C-128.15917429 333.50403082 -127.01725366 331.28112636 -125.86328125 329.0625 C-115.83989453 309.662235 -107.75894554 289.3175634 -99.5 269.125 C-98.90158295 267.6619342 -98.90158295 267.6619342 -98.29107666 266.16931152 C-97.1400256 263.35194257 -95.99127237 260.5336516 -94.84375 257.71484375 C-94.50040619 256.87298019 -94.15706238 256.03111664 -93.80331421 255.16374207 C-91.78766186 250.19967903 -89.85929584 245.21228305 -88 240.1875 C-91.52884888 239.01121704 -92.52083483 239.63962196 -95.7331543 241.23193359 Z " fill="#F9F9F9" transform="translate(448,282.8125)"/>
<path d="M0 0 C6.72998716 6.5460486 10.6063513 14.4097955 10.875 23.8125 C10.66281549 39.81121196 1.77682176 56.10781894 -9 67.53125 C-11.48480399 69.86075374 -13.17214317 70.83785004 -16.5625 71.3125 C-21.33786452 70.58581409 -21.33786452 70.58581409 -23.4375 68.875 C-24.83042509 64.3763185 -24.31502998 61.76446271 -22.13720703 57.62329102 C-21.78255371 56.98447998 -21.42790039 56.34566895 -21.0625 55.6875 C-20.32102633 54.27703379 -19.58152742 52.86552813 -18.84375 51.453125 C-18.2559375 50.34227539 -18.2559375 50.34227539 -17.65625 49.20898438 C-15.54129014 45.15870068 -13.54449143 41.05410026 -11.5625 36.9375 C-11.18174316 36.16962158 -10.80098633 35.40174316 -10.40869141 34.6105957 C-7.43923931 28.43655994 -5.50258951 22.38983367 -5.375 15.5 C-6.25679905 12.60255458 -6.25679905 12.60255458 -9.3125 11 C-22.74181514 6.42368165 -38.27069155 12.103054 -50.48828125 17.86328125 C-69.77983953 27.42657755 -87.76735935 42.32693501 -101.4375 58.875 C-102.2315625 59.7928125 -103.025625 60.710625 -103.84375 61.65625 C-111.43191475 70.43602528 -118.47606367 79.59440748 -125.4375 88.875 C-126.01967285 89.64682617 -126.6018457 90.41865234 -127.20166016 91.21386719 C-135.43447592 102.1444545 -143.26023516 113.22234077 -150.4375 124.875 C-151.04352051 125.8546875 -151.64954102 126.834375 -152.27392578 127.84375 C-174.77815668 164.4276933 -198.27161418 208.56188249 -191.95703125 253.27734375 C-190.45800455 258.6523069 -189.21202727 262.54393447 -184.4375 265.875 C-181.60081465 266.80654626 -181.60081465 266.80654626 -178.4375 266.875 C-177.2 266.9575 -175.9625 267.04 -174.6875 267.125 C-146.53871729 266.48886932 -121.32838112 236.45505219 -103.4375 217.875 C-101.65637591 215.91827212 -99.91813225 213.93659226 -98.203125 211.921875 C-96.0431658 209.41785151 -93.80262007 206.99502302 -91.5625 204.5625 C-87.47803438 200.08375715 -83.59924124 195.48487388 -79.796875 190.765625 C-78.10106056 188.68797155 -76.39017868 186.64057579 -74.640625 184.609375 C-69.46993459 178.6051246 -64.5895953 172.65500371 -60.4375 165.875 C-66.45212578 166.43355879 -71.44363287 168.25214251 -77 170.5625 C-77.8775293 170.91828125 -78.75505859 171.2740625 -79.65917969 171.640625 C-83.6626088 173.27300603 -87.63978408 174.9456575 -91.57421875 176.73828125 C-102.53514151 181.70328302 -102.53514151 181.70328302 -109.4375 180.875 C-110.625 178.75 -110.625 178.75 -111.4375 175.875 C-109.32982082 168.79921991 -103.58218625 165.70586854 -97.5390625 162.1875 C-87.30690261 156.74331042 -76.47745272 153.30225624 -65.4375 149.875 C-64.09243673 149.44404533 -62.74738352 149.01305924 -61.40234375 148.58203125 C-51.67211352 145.59723194 -41.52020311 143.53437249 -31.4375 145.875 C-28.55515751 148.16609275 -26.74776576 150.12975509 -26.09375 153.80859375 C-25.2688171 167.02814344 -32.47197408 179.97769238 -37.75585938 191.7800293 C-39.98118028 196.75961089 -42.01067222 201.79715654 -44 206.875 C-53.22157215 230.23770386 -63.69797343 253.1775972 -74.4375 275.875 C-74.80004883 276.64150879 -75.16259766 277.40801758 -75.53613281 278.19775391 C-80.3500487 288.29197772 -85.82964794 297.96667619 -91.43359375 307.640625 C-93.3281503 310.9186708 -95.17939449 314.21236206 -96.97265625 317.546875 C-103.06391309 328.86695345 -109.95167576 339.42757833 -117.4375 349.875 C-117.95103027 350.59494141 -118.46456055 351.31488281 -118.99365234 352.05664062 C-125.08416884 360.54300841 -131.52317803 368.45960811 -138.74609375 376.0078125 C-140.66389188 378.05086595 -142.41679105 380.06345907 -144.16015625 382.2421875 C-145.28744141 383.54542969 -145.28744141 383.54542969 -146.4375 384.875 C-147.0975 384.875 -147.7575 384.875 -148.4375 384.875 C-148.4375 385.535 -148.4375 386.195 -148.4375 386.875 C-149.765625 388.25 -149.765625 388.25 -151.6875 389.875 C-152.79158203 390.80892578 -152.79158203 390.80892578 -153.91796875 391.76171875 C-154.74941406 392.45910156 -155.58085938 393.15648437 -156.4375 393.875 C-157.32050781 394.64457031 -158.20351563 395.41414063 -159.11328125 396.20703125 C-182.367755 416.18888623 -213.73594458 436.22843316 -245.41308594 434.08642578 C-254.46447371 433.14111683 -263.40744426 431.08165199 -269.4375 423.875 C-269.9375 421.0625 -269.9375 421.0625 -269.4375 418.875 C-268.4375 417.875 -268.4375 417.875 -265.92578125 417.7421875 C-264.87777344 417.74476563 -263.82976563 417.74734375 -262.75 417.75 C-261.71488281 417.74742187 -260.67976562 417.74484375 -259.61328125 417.7421875 C-256.4375 417.875 -256.4375 417.875 -253.51171875 418.36328125 C-235.25547012 421.40212314 -220.19842183 415.38811207 -204.4375 406.875 C-203.82874023 406.55515137 -203.21998047 406.23530273 -202.59277344 405.90576172 C-187.74016424 398.09009325 -175.47546109 387.44423276 -163.4375 375.875 C-162.89206543 375.35679687 -162.34663086 374.83859375 -161.78466797 374.3046875 C-154.01250269 366.89523847 -147.12587102 359.12353022 -140.68554688 350.53320312 C-139.51963582 348.98412882 -138.3309385 347.45227807 -137.140625 345.921875 C-114.50298012 316.54110186 -98.63540107 283.02766242 -83.72987366 249.28742981 C-79.87421107 240.57381971 -75.9121075 231.90984603 -71.9375 223.25 C-70.6246258 220.38689021 -69.31221607 217.52356773 -68 214.66015625 C-67.69213562 213.98852951 -67.38427124 213.31690277 -67.06707764 212.62492371 C-63.14482069 204.06222685 -59.28241716 195.47266198 -55.4375 186.875 C-59.27412714 189.71047575 -61.9630568 192.63802021 -64.75 196.5 C-65.53922132 197.57636005 -66.329605 198.65186868 -67.12109375 199.7265625 C-68.26771484 201.28503906 -68.26771484 201.28503906 -69.4375 202.875 C-74.21151883 209.13321874 -79.29254755 215.02436105 -84.66943359 220.765625 C-86.61915335 222.8528476 -88.46226288 224.90926955 -90.13671875 227.2265625 C-90.56597656 227.77054688 -90.99523437 228.31453125 -91.4375 228.875 C-92.0975 228.875 -92.7575 228.875 -93.4375 228.875 C-93.83388672 229.76445313 -93.83388672 229.76445313 -94.23828125 230.671875 C-95.48120425 232.95529054 -96.74151646 234.34926723 -98.625 236.125 C-101.17420849 238.5952041 -103.56569493 241.11654523 -105.875 243.8125 C-121.83589462 262.2672844 -144.45681526 281.49637461 -169.8125 283.625 C-180.31978036 284.27419124 -188.28050199 281.7351944 -196.5703125 275.19140625 C-203.99698832 268.40009243 -209.00294112 258.86243523 -210.4375 248.875 C-210.57027344 247.98039062 -210.70304688 247.08578125 -210.83984375 246.1640625 C-213.92984529 218.59708244 -204.00335913 186.66414517 -192.4375 161.875 C-191.93589355 160.78558105 -191.43428711 159.69616211 -190.91748047 158.57373047 C-180.22312229 135.48228984 -168.27223535 113.59741803 -153.4375 92.875 C-152.86209473 92.06756348 -152.28668945 91.26012695 -151.69384766 90.42822266 C-144.48346176 80.35040906 -136.95496991 70.72149927 -128.77197266 61.41992188 C-126.71816247 59.04222139 -124.77125288 56.58115948 -122.8125 54.125 C-119.07474154 49.51374364 -115.02460266 45.35997065 -110.78125 41.21484375 C-108.68945773 39.1265378 -106.73581464 36.99241003 -104.8125 34.75 C-93.88475438 22.1313561 -80.98529919 13.67179186 -66.8125 5.0625 C-65.77617432 4.42820068 -64.73984863 3.79390137 -63.67211914 3.14038086 C-44.41888721 -8.38475212 -19.30461297 -16.13945486 0 0 Z " fill="#F9F9F9" transform="translate(781.4375,299.125)"/>
<path d="" fill="#F1F1F0" transform="translate(0,0)"/>
</svg>
